<svg xmlns="http://www.w3.org/2000/svg" xmlns:xlink="http://www.w3.org/1999/xlink" width="500" zoomAndPan="magnify" viewBox="0 0 375 374.999991" height="500" preserveAspectRatio="xMidYMid meet" version="1.0"><path fill="#a44f30" d="M 164.210938 321.511719 C 128.152344 295.050781 123.328125 254.332031 118.121094 210.570312 C 112.210938 160.957031 105.757812 106.949219 44.214844 71.378906 C 22.796875 85.152344 9.457031 108.957031 5.011719 137.097656 C 0.0234375 168.65625 6.203125 205.527344 24.75 240.125 C 43.238281 274.664062 70.457031 300.203125 99.46875 313.597656 C 121.15625 323.574219 143.769531 326.71875 164.210938 321.511719 " fill-opacity="1" fill-rule="nonzero"/><path fill="#a44f30" d="M 317.339844 55.65625 C 299.066406 48.28125 278.621094 48.28125 258.453125 54.515625 C 237.574219 60.96875 217.023438 74.039062 199.347656 92.472656 C 209.648438 104.132812 218.867188 117.363281 226.730469 132.054688 C 237.628906 152.445312 244.734375 173.589844 248.203125 194.304688 C 284.75 161.445312 323.574219 125.117188 317.339844 55.65625 " fill-opacity="1" fill-rule="nonzero"/><path fill="#a44f30" d="M 218.597656 315.0625 C 238.714844 318.585938 260.402344 314.410156 281.007812 303.890625 C 308.988281 289.574219 334.851562 263.710938 352.09375 229.386719 C 369.71875 194.359375 374.976562 157.378906 369.230469 125.984375 C 365.21875 104.023438 355.726562 84.828125 341.359375 71.164062 C 341.46875 141.761719 299.933594 179.066406 261.597656 213.5 C 257.910156 216.808594 254.222656 220.117188 250.804688 223.261719 C 250.859375 232.261719 250.210938 241.046875 248.90625 249.558594 C 244.839844 275.042969 234.59375 297.816406 218.597656 315.0625 " fill-opacity="1" fill-rule="nonzero"/><path fill="#a44f30" d="M 70.675781 60.699219 C 128.476562 101.257812 135.09375 156.675781 141.167969 207.859375 C 146.207031 250.316406 150.871094 289.519531 189.480469 309.910156 C 209.324219 295.917969 221.742188 272.929688 226.027344 245.925781 C 231.015625 214.3125 224.832031 177.496094 206.289062 142.902344 C 187.796875 108.359375 160.578125 82.820312 131.570312 69.429688 C 111.234375 60.101562 90.085938 56.792969 70.675781 60.699219 " fill-opacity="1" fill-rule="nonzero"/></svg>