<svg xmlns="http://www.w3.org/2000/svg" xmlns:xlink="http://www.w3.org/1999/xlink" width="888" zoomAndPan="magnify" viewBox="0 0 666 205.499994" height="274" preserveAspectRatio="xMidYMid meet" version="1.0"><defs><g/></defs><g fill="#000000" fill-opacity="1"><g transform="translate(59.96751, 107.702475)"><g><path d="M 30.578125 1.117188 C 35.605469 1.117188 40.980469 0.277344 46.636719 -1.328125 L 45.65625 -8.796875 C 42.097656 -6.074219 37.488281 -0.347656 33.71875 -0.347656 C 22.0625 -0.347656 13.613281 -11.589844 13.613281 -24.226562 C 13.613281 -39.863281 20.804688 -48.800781 33.441406 -48.800781 C 37.210938 -48.800781 41.121094 -43.914062 45.9375 -40.28125 L 46.636719 -47.472656 C 41.121094 -49.359375 35.605469 -50.335938 30.4375 -50.335938 C 14.941406 -50.335938 2.445312 -41.539062 2.445312 -24.226562 C 2.445312 -7.679688 14.171875 1.117188 30.578125 1.117188 Z M 30.578125 1.117188 "/></g></g></g><g fill="#000000" fill-opacity="1"><g transform="translate(107.153967, 107.702475)"><g><path d="M 16.335938 1.046875 C 21.78125 1.046875 27.15625 -2.511719 30.507812 -6.492188 L 30.507812 0 L 41.679688 0 L 41.679688 -29.183594 C 41.679688 -38.1875 34.488281 -41.679688 25.480469 -41.679688 C 19.617188 -41.679688 12.984375 -40.210938 7.121094 -37.839844 L 9.214844 -29.808594 C 13.542969 -36.300781 19.339844 -40.492188 24.574219 -40.492188 C 28.414062 -40.492188 30.507812 -37.628906 30.507812 -32.253906 C 17.523438 -28.414062 2.652344 -23.386719 2.652344 -10.679688 C 2.652344 -4.675781 6.980469 1.046875 16.335938 1.046875 Z M 21.570312 -2.863281 C 17.175781 -2.863281 13.824219 -6.839844 13.824219 -13.125 C 13.824219 -22.269531 18.847656 -27.507812 30.507812 -31.066406 L 30.507812 -7.679688 C 27.785156 -4.957031 24.503906 -2.863281 21.570312 -2.863281 Z M 21.570312 -2.863281 "/></g></g></g><g fill="#000000" fill-opacity="1"><g transform="translate(151.269105, 107.702475)"><g><path d="M 17.175781 0 L 17.175781 -39.164062 L 25.34375 -39.164062 L 25.34375 -40.351562 L 17.105469 -40.351562 C 11.308594 -45.867188 9.003906 -49.707031 9.003906 -51.871094 C 9.003906 -53.6875 10.261719 -54.59375 12.355469 -54.59375 C 15.847656 -54.59375 21.992188 -52.011719 27.714844 -47.332031 L 29.949219 -54.3125 C 25.0625 -56.199219 20.804688 -57.105469 17.175781 -57.105469 C 10.402344 -57.105469 4.886719 -54.871094 4.886719 -47.542969 C 4.886719 -45.796875 5.234375 -43.84375 6.003906 -41.679688 L 6.003906 -40.351562 L -0.835938 -40.351562 L -0.835938 -39.164062 L 6.003906 -39.164062 L 6.003906 0 Z M 17.175781 0 "/></g></g></g><g fill="#000000" fill-opacity="1"><g transform="translate(177.584543, 107.702475)"><g><path d="M 35.742188 -59.199219 L 24.574219 -59.199219 L 16.753906 -45.378906 L 18.011719 -45.378906 Z M 25.761719 1.046875 C 31.695312 1.046875 37.839844 -0.835938 43.003906 -4.746094 L 40.699219 -11.730469 C 35.046875 -4.050781 29.390625 -0.277344 24.714844 -0.277344 C 18.222656 -0.277344 13.472656 -7.191406 13.195312 -20.035156 L 42.585938 -20.035156 C 43.074219 -21.851562 43.285156 -23.597656 43.285156 -25.203125 C 43.285156 -36.09375 34.070312 -41.539062 24.363281 -41.539062 C 13.472656 -41.539062 2.023438 -34.695312 2.023438 -21.082031 C 2.023438 -7.121094 13.402344 1.046875 25.761719 1.046875 Z M 13.195312 -21.222656 C 13.402344 -33.648438 19.128906 -40.140625 24.363281 -40.140625 C 28.832031 -40.140625 32.953125 -35.464844 32.953125 -25.691406 C 32.953125 -24.226562 32.8125 -22.757812 32.53125 -21.222656 Z M 13.195312 -21.222656 "/></g></g></g><g fill="#000000" fill-opacity="1"><g transform="translate(222.123739, 107.702475)"><g/></g></g><g fill="#000000" fill-opacity="1"><g transform="translate(235.40835, 107.806318)"><g><path d="M 13.820312 -25.402344 L 35.078125 -25.402344 L 35.078125 -26.585938 L 13.820312 -26.585938 L 13.820312 -45.078125 C 26.585938 -45.078125 32.574219 -43.5 39.15625 -39.617188 L 39.15625 -46.199219 L 3.289062 -46.199219 L 3.289062 0 L 40.144531 0 L 40.144531 -6.582031 C 32.90625 -2.171875 26.457031 -1.183594 13.820312 -1.183594 Z M 13.820312 -25.402344 "/></g></g></g><g fill="#000000" fill-opacity="1"><g transform="translate(277.128319, 107.806318)"><g><path d="M 21.652344 0.988281 C 34.285156 0.988281 42.777344 -4.015625 42.511719 -12.832031 C 42.183594 -26.71875 9.675781 -31.457031 9.410156 -39.683594 C 9.277344 -44.222656 14.015625 -45.871094 19.675781 -45.871094 C 24.546875 -45.871094 31.785156 -43.433594 39.75 -38.105469 L 40.277344 -44.683594 C 34.222656 -46.394531 28.035156 -47.316406 22.507812 -47.316406 C 10.859375 -47.316406 1.25 -43.5 1.449219 -35.539062 C 1.777344 -24.414062 29.484375 -21.386719 33.101562 -11.253906 C 35.078125 -5.59375 30.402344 -0.527344 23.097656 -0.527344 C 17.835938 -0.527344 10.726562 -3.027344 2.5 -9.082031 L 2.039062 -2.5 C 9.015625 -0.132812 15.664062 0.988281 21.652344 0.988281 Z M 21.652344 0.988281 "/></g></g></g><g fill="#000000" fill-opacity="1"><g transform="translate(321.15145, 107.806318)"><g><path d="M 30.140625 0.988281 C 35.867188 0.988281 42.050781 -0.261719 48.304688 -2.699219 L 48.304688 -24.152344 L 37.773438 -24.152344 L 37.773438 -1.382812 C 35.667969 -0.59375 33.5625 -0.261719 31.589844 -0.261719 C 21.257812 -0.261719 12.832031 -7.964844 12.832031 -23.890625 C 12.832031 -37.839844 19.347656 -45.933594 28.824219 -45.933594 C 34.089844 -45.933594 40.40625 -43.304688 47.121094 -37.644531 L 47.449219 -44.222656 C 41.722656 -46.199219 35.996094 -47.121094 30.667969 -47.121094 C 14.808594 -47.121094 2.304688 -38.828125 2.304688 -23.890625 C 2.304688 -7.964844 14.476562 0.988281 30.140625 0.988281 Z M 30.140625 0.988281 "/></g></g></g><g fill="#000000" fill-opacity="1"><g transform="translate(370.833782, 107.806318)"><g><path d="M 22.96875 0.988281 C 34.550781 0.988281 43.039062 -5.265625 43.039062 -17.769531 L 43.039062 -46.199219 L 32.511719 -46.199219 L 32.511719 -11.386719 C 32.511719 -4.476562 28.691406 -0.199219 22.96875 -0.199219 C 17.175781 -0.199219 13.226562 -4.476562 13.226562 -11.386719 L 13.226562 -46.199219 L 2.632812 -46.199219 L 2.632812 -17.769531 C 2.632812 -5.265625 11.386719 0.988281 22.96875 0.988281 Z M 22.96875 0.988281 "/></g></g></g><g fill="#000000" fill-opacity="1"><g transform="translate(414.856915, 107.806318)"><g><path d="M 13.820312 -25.402344 L 35.078125 -25.402344 L 35.078125 -26.585938 L 13.820312 -26.585938 L 13.820312 -45.078125 C 26.585938 -45.078125 32.574219 -43.5 39.15625 -39.617188 L 39.15625 -46.199219 L 3.289062 -46.199219 L 3.289062 0 L 40.144531 0 L 40.144531 -6.582031 C 32.90625 -2.171875 26.457031 -1.183594 13.820312 -1.183594 Z M 13.820312 -25.402344 "/></g></g></g><g fill="#000000" fill-opacity="1"><g transform="translate(456.576876, 107.806318)"><g><path d="M 32.773438 -18.425781 C 31.984375 -20.070312 30.734375 -21.058594 28.628906 -21.71875 C 36.128906 -23.230469 39.75 -29.351562 39.75 -34.683594 C 39.75 -40.671875 35.539062 -46.199219 26.125 -46.199219 L 3.289062 -46.199219 L 3.289062 0 L 13.820312 0 L 13.820312 -18.558594 C 15.730469 -20.070312 17.570312 -20.863281 18.820312 -20.863281 C 20.136719 -20.863281 21.058594 -20.070312 21.78125 -18.753906 L 31.257812 0 L 41.789062 0 Z M 22.769531 -22.902344 C 19.347656 -22.96875 15.992188 -21.324219 13.820312 -19.675781 L 13.820312 -45.078125 L 19.941406 -45.078125 C 26.519531 -45.078125 29.878906 -39.816406 29.878906 -33.367188 C 29.878906 -27.441406 26.71875 -22.769531 22.769531 -22.902344 Z M 22.769531 -22.902344 "/></g></g></g><g fill="#000000" fill-opacity="1"><g transform="translate(499.086503, 107.806318)"><g><path d="M 32.773438 -18.425781 C 31.984375 -20.070312 30.734375 -21.058594 28.628906 -21.71875 C 36.128906 -23.230469 39.75 -29.351562 39.75 -34.683594 C 39.75 -40.671875 35.539062 -46.199219 26.125 -46.199219 L 3.289062 -46.199219 L 3.289062 0 L 13.820312 0 L 13.820312 -18.558594 C 15.730469 -20.070312 17.570312 -20.863281 18.820312 -20.863281 C 20.136719 -20.863281 21.058594 -20.070312 21.78125 -18.753906 L 31.257812 0 L 41.789062 0 Z M 22.769531 -22.902344 C 19.347656 -22.96875 15.992188 -21.324219 13.820312 -19.675781 L 13.820312 -45.078125 L 19.941406 -45.078125 C 26.519531 -45.078125 29.878906 -39.816406 29.878906 -33.367188 C 29.878906 -27.441406 26.71875 -22.769531 22.769531 -22.902344 Z M 22.769531 -22.902344 "/></g></g></g><g fill="#000000" fill-opacity="1"><g transform="translate(541.59613, 107.806318)"><g><path d="M 11.515625 0 L 19.546875 -20.203125 L 39.222656 -20.203125 L 40.472656 -16.847656 C 43.105469 -10.199219 43.5 -3.554688 43.761719 0 L 48.371094 0 L 29.945312 -46.199219 L 19.414062 -46.199219 L 0.988281 0 Z M 29.351562 -44.75 L 38.761719 -21.324219 L 20.007812 -21.324219 Z M 29.351562 -44.75 "/></g></g></g><g fill="#000000" fill-opacity="1"><g transform="translate(279.636181, 170.960348)"><g><path d="M 20.4375 -10.4375 C 20.4375 -8.914062 20.195312 -7.488281 19.71875 -6.15625 C 19.238281 -4.832031 18.550781 -3.679688 17.65625 -2.703125 C 16.757812 -1.734375 15.679688 -0.972656 14.421875 -0.421875 C 13.171875 0.128906 11.753906 0.40625 10.171875 0.40625 C 6.828125 0.40625 4.472656 -0.46875 3.109375 -2.21875 C 1.753906 -3.96875 1.078125 -6.394531 1.078125 -9.5 L 1.078125 -26.84375 C 1.078125 -27.4375 1.046875 -27.894531 0.984375 -28.21875 C 0.921875 -28.550781 0.804688 -28.789062 0.640625 -28.9375 C 0.484375 -29.09375 0.25 -29.175781 -0.0625 -29.1875 C -0.375 -29.207031 -0.800781 -29.21875 -1.34375 -29.21875 C -1.582031 -29.21875 -1.722656 -29.328125 -1.765625 -29.546875 C -1.816406 -29.773438 -1.660156 -29.9375 -1.296875 -30.03125 C -0.492188 -30.269531 0.332031 -30.519531 1.1875 -30.78125 C 2.039062 -31.050781 2.835938 -31.367188 3.578125 -31.734375 C 3.941406 -31.910156 4.125 -31.832031 4.125 -31.5 L 4.125 -18.234375 C 5.738281 -20.023438 8.050781 -20.921875 11.0625 -20.921875 C 12.53125 -20.921875 13.835938 -20.648438 14.984375 -20.109375 C 16.140625 -19.578125 17.117188 -18.835938 17.921875 -17.890625 C 18.734375 -16.953125 19.351562 -15.84375 19.78125 -14.5625 C 20.21875 -13.28125 20.4375 -11.90625 20.4375 -10.4375 Z M 4.125 -7.984375 C 4.125 -6.898438 4.226562 -5.910156 4.4375 -5.015625 C 4.644531 -4.117188 4.972656 -3.347656 5.421875 -2.703125 C 5.867188 -2.066406 6.453125 -1.566406 7.171875 -1.203125 C 7.890625 -0.847656 8.769531 -0.671875 9.8125 -0.671875 C 10.882812 -0.671875 11.863281 -0.945312 12.75 -1.5 C 13.632812 -2.050781 14.390625 -2.773438 15.015625 -3.671875 C 15.640625 -4.566406 16.128906 -5.582031 16.484375 -6.71875 C 16.847656 -7.851562 17.046875 -9.019531 17.078125 -10.21875 C 17.109375 -11.414062 16.976562 -12.582031 16.6875 -13.71875 C 16.40625 -14.851562 15.960938 -15.859375 15.359375 -16.734375 C 14.765625 -17.617188 14 -18.328125 13.0625 -18.859375 C 12.125 -19.398438 10.992188 -19.671875 9.671875 -19.671875 C 8.960938 -19.671875 8.273438 -19.554688 7.609375 -19.328125 C 6.953125 -19.109375 6.363281 -18.8125 5.84375 -18.4375 C 5.320312 -18.0625 4.90625 -17.648438 4.59375 -17.203125 C 4.28125 -16.753906 4.125 -16.304688 4.125 -15.859375 Z M 4.125 -7.984375 "/></g></g></g><g fill="#000000" fill-opacity="1"><g transform="translate(301.414729, 170.960348)"><g><path d="M 10.703125 3 C 10.015625 4.613281 9.132812 5.9375 8.0625 6.96875 C 6.988281 8 5.570312 8.515625 3.8125 8.515625 C 2.582031 8.515625 1.554688 8.242188 0.734375 7.703125 C -0.0859375 7.171875 -0.691406 6.5625 -1.078125 5.875 C -1.492188 5.0625 -1.53125 4.414062 -1.1875 3.9375 C -0.84375 3.457031 -0.414062 3.21875 0.09375 3.21875 C 0.414062 3.21875 0.726562 3.332031 1.03125 3.5625 C 1.332031 3.789062 1.523438 4.15625 1.609375 4.65625 C 1.765625 5.4375 2.023438 6.050781 2.390625 6.5 C 2.765625 6.945312 3.375 7.171875 4.21875 7.171875 C 4.988281 7.171875 5.65625 7.015625 6.21875 6.703125 C 6.789062 6.390625 7.285156 5.984375 7.703125 5.484375 C 8.117188 4.992188 8.484375 4.441406 8.796875 3.828125 C 9.117188 3.210938 9.410156 2.609375 9.671875 2.015625 C 9.941406 1.328125 9.992188 0.691406 9.828125 0.109375 C 9.671875 -0.472656 9.503906 -0.972656 9.328125 -1.390625 L 2.46875 -17.75 L 2.46875 -17.703125 C 2.226562 -18.265625 1.957031 -18.679688 1.65625 -18.953125 C 1.351562 -19.222656 1.035156 -19.410156 0.703125 -19.515625 C 0.378906 -19.617188 0.0351562 -19.6875 -0.328125 -19.71875 C -0.703125 -19.75 -1.070312 -19.796875 -1.4375 -19.859375 C -1.675781 -19.878906 -1.785156 -20 -1.765625 -20.21875 C -1.753906 -20.445312 -1.628906 -20.5625 -1.390625 -20.5625 L 7.890625 -20.5625 C 8.128906 -20.5625 8.25 -20.445312 8.25 -20.21875 C 8.25 -20 8.144531 -19.878906 7.9375 -19.859375 C 7.570312 -19.796875 7.222656 -19.738281 6.890625 -19.6875 C 6.566406 -19.644531 6.300781 -19.578125 6.09375 -19.484375 C 5.882812 -19.398438 5.742188 -19.242188 5.671875 -19.015625 C 5.597656 -18.796875 5.632812 -18.476562 5.78125 -18.0625 C 6.34375 -16.71875 6.828125 -15.554688 7.234375 -14.578125 C 7.640625 -13.609375 8.03125 -12.644531 8.40625 -11.6875 C 8.78125 -10.738281 9.195312 -9.703125 9.65625 -8.578125 C 10.125 -7.460938 10.710938 -6.066406 11.421875 -4.390625 C 11.722656 -3.671875 12.007812 -3.671875 12.28125 -4.390625 L 18.015625 -18.015625 C 18.160156 -18.460938 18.164062 -18.796875 18.03125 -19.015625 C 17.894531 -19.242188 17.671875 -19.410156 17.359375 -19.515625 C 17.046875 -19.617188 16.6875 -19.6875 16.28125 -19.71875 C 15.882812 -19.75 15.503906 -19.796875 15.140625 -19.859375 C 14.929688 -19.878906 14.828125 -20 14.828125 -20.21875 C 14.828125 -20.445312 14.945312 -20.5625 15.1875 -20.5625 L 23.25 -20.5625 C 23.488281 -20.5625 23.613281 -20.445312 23.625 -20.21875 C 23.644531 -20 23.535156 -19.878906 23.296875 -19.859375 C 22.941406 -19.796875 22.578125 -19.75 22.203125 -19.71875 C 21.828125 -19.6875 21.46875 -19.601562 21.125 -19.46875 C 20.78125 -19.332031 20.457031 -19.128906 20.15625 -18.859375 C 19.863281 -18.597656 19.597656 -18.179688 19.359375 -17.609375 L 19.359375 -17.703125 C 19.003906 -16.835938 18.644531 -15.96875 18.28125 -15.09375 C 17.925781 -14.226562 17.566406 -13.363281 17.203125 -12.5 L 12.859375 -2.203125 C 12.503906 -1.328125 12.144531 -0.457031 11.78125 0.40625 C 11.425781 1.269531 11.066406 2.132812 10.703125 3 Z M 10.703125 3 "/></g></g></g><g fill="#000000" fill-opacity="1"><g transform="translate(346.99945, 172.997176)"><g><path d="M 21.515625 -5.8125 C 21.679688 -5.769531 21.78125 -5.664062 21.8125 -5.5 C 21.882812 -5.351562 21.882812 -5.195312 21.8125 -5.03125 C 21.644531 -4.6875 21.363281 -4.226562 20.96875 -3.65625 C 20.570312 -3.082031 20.007812 -2.519531 19.28125 -1.96875 C 18.550781 -1.414062 17.632812 -0.945312 16.53125 -0.5625 C 15.425781 -0.1875 14.078125 0 12.484375 0 C 11.316406 0 10.097656 -0.1875 8.828125 -0.5625 C 7.566406 -0.945312 6.410156 -1.601562 5.359375 -2.53125 C 4.304688 -3.46875 3.441406 -4.710938 2.765625 -6.265625 C 2.097656 -7.828125 1.765625 -9.796875 1.765625 -12.171875 C 1.765625 -14.941406 2.203125 -17.164062 3.078125 -18.84375 C 3.960938 -20.519531 5.015625 -21.796875 6.234375 -22.671875 C 7.460938 -23.554688 8.71875 -24.132812 10 -24.40625 C 11.28125 -24.6875 12.335938 -24.828125 13.171875 -24.828125 C 13.921875 -24.828125 14.742188 -24.710938 15.640625 -24.484375 C 16.546875 -24.265625 17.382812 -23.921875 18.15625 -23.453125 C 18.9375 -22.984375 19.613281 -22.421875 20.1875 -21.765625 C 20.757812 -21.109375 21.113281 -20.332031 21.25 -19.4375 C 21.28125 -19.300781 21.296875 -19.09375 21.296875 -18.8125 C 21.265625 -18.125 21.003906 -17.546875 20.515625 -17.078125 C 20.035156 -16.609375 19.453125 -16.390625 18.765625 -16.421875 C 18.066406 -16.421875 17.476562 -16.671875 17 -17.171875 C 16.519531 -17.679688 16.28125 -18.28125 16.28125 -18.96875 C 16.28125 -19.070312 16.296875 -19.140625 16.328125 -19.171875 C 16.359375 -19.898438 16.453125 -20.472656 16.609375 -20.890625 C 16.765625 -21.304688 16.84375 -21.753906 16.84375 -22.234375 C 16.84375 -22.335938 16.796875 -22.472656 16.703125 -22.640625 C 16.617188 -22.816406 16.457031 -22.984375 16.21875 -23.140625 C 15.976562 -23.296875 15.625 -23.425781 15.15625 -23.53125 C 14.6875 -23.632812 14.039062 -23.6875 13.21875 -23.6875 C 12.382812 -23.6875 11.5 -23.519531 10.5625 -23.1875 C 9.632812 -22.863281 8.78125 -22.269531 8 -21.40625 C 7.226562 -20.539062 6.59375 -19.375 6.09375 -17.90625 C 5.59375 -16.4375 5.34375 -14.578125 5.34375 -12.328125 C 5.34375 -10.191406 5.617188 -8.40625 6.171875 -6.96875 C 6.722656 -5.53125 7.382812 -4.390625 8.15625 -3.546875 C 8.9375 -2.703125 9.757812 -2.097656 10.625 -1.734375 C 11.488281 -1.367188 12.234375 -1.1875 12.859375 -1.1875 C 14.335938 -1.1875 15.5625 -1.347656 16.53125 -1.671875 C 17.5 -2.003906 18.273438 -2.40625 18.859375 -2.875 C 19.453125 -3.34375 19.894531 -3.816406 20.1875 -4.296875 C 20.476562 -4.785156 20.691406 -5.1875 20.828125 -5.5 C 21.003906 -5.707031 21.234375 -5.8125 21.515625 -5.8125 Z M 21.515625 -5.8125 "/></g></g></g><g fill="#000000" fill-opacity="1"><g transform="translate(375.295966, 172.997176)"><g><path d="M 22.953125 -1.140625 C 23.335938 -1.140625 23.53125 -0.945312 23.53125 -0.5625 C 23.53125 -0.1875 23.335938 0 22.953125 0 L 18.703125 0 C 18.296875 0 17.988281 -0.132812 17.78125 -0.40625 C 17.570312 -0.6875 17.429688 -1.035156 17.359375 -1.453125 C 17.296875 -1.867188 17.269531 -2.289062 17.28125 -2.71875 C 17.300781 -3.15625 17.3125 -3.523438 17.3125 -3.828125 L 17.3125 -4.8125 C 16.476562 -3.195312 15.316406 -2 13.828125 -1.21875 C 12.347656 -0.4375 10.832031 -0.046875 9.28125 -0.046875 C 8.3125 -0.046875 7.367188 -0.203125 6.453125 -0.515625 C 5.535156 -0.828125 4.726562 -1.273438 4.03125 -1.859375 C 3.34375 -2.453125 2.78125 -3.195312 2.34375 -4.09375 C 1.914062 -4.988281 1.703125 -6.023438 1.703125 -7.203125 C 1.703125 -8.484375 2.046875 -9.5625 2.734375 -10.4375 C 3.429688 -11.320312 4.304688 -12.039062 5.359375 -12.59375 C 6.410156 -13.144531 7.578125 -13.578125 8.859375 -13.890625 C 10.140625 -14.203125 11.359375 -14.425781 12.515625 -14.5625 C 13.671875 -14.695312 14.6875 -14.773438 15.5625 -14.796875 C 16.445312 -14.816406 17.03125 -14.828125 17.3125 -14.828125 L 17.3125 -18.1875 C 17.3125 -19.289062 17.113281 -20.1875 16.71875 -20.875 C 16.320312 -21.570312 15.828125 -22.117188 15.234375 -22.515625 C 14.648438 -22.910156 13.992188 -23.1875 13.265625 -23.34375 C 12.535156 -23.5 11.863281 -23.578125 11.25 -23.578125 L 10.578125 -23.578125 C 9.429688 -23.578125 8.570312 -23.367188 8 -22.953125 C 7.4375 -22.546875 7.1875 -22.117188 7.25 -21.671875 C 7.289062 -21.460938 7.351562 -21.28125 7.4375 -21.125 C 7.519531 -20.96875 7.613281 -20.800781 7.71875 -20.625 C 7.820312 -20.457031 7.925781 -20.257812 8.03125 -20.03125 C 8.132812 -19.800781 8.203125 -19.515625 8.234375 -19.171875 C 8.273438 -19.140625 8.296875 -19.054688 8.296875 -18.921875 L 8.296875 -18.609375 C 8.296875 -17.816406 8.023438 -17.160156 7.484375 -16.640625 C 6.953125 -16.117188 6.304688 -15.84375 5.546875 -15.8125 C 4.753906 -15.8125 4.078125 -16.085938 3.515625 -16.640625 C 2.960938 -17.191406 2.6875 -17.863281 2.6875 -18.65625 C 2.6875 -19.144531 2.804688 -19.734375 3.046875 -20.421875 C 3.296875 -21.109375 3.738281 -21.769531 4.375 -22.40625 C 5.019531 -23.050781 5.898438 -23.597656 7.015625 -24.046875 C 8.140625 -24.492188 9.566406 -24.71875 11.296875 -24.71875 C 12.335938 -24.757812 13.363281 -24.675781 14.375 -24.46875 C 15.394531 -24.257812 16.375 -23.910156 17.3125 -23.421875 C 18.519531 -22.765625 19.398438 -21.976562 19.953125 -21.0625 C 20.503906 -20.144531 20.816406 -19.289062 20.890625 -18.5 L 20.890625 -4.296875 C 20.890625 -3.191406 21.039062 -2.414062 21.34375 -1.96875 C 21.65625 -1.519531 22.191406 -1.242188 22.953125 -1.140625 Z M 17.3125 -13.9375 C 16 -13.875 14.632812 -13.71875 13.21875 -13.46875 C 11.800781 -13.226562 10.503906 -12.847656 9.328125 -12.328125 C 8.148438 -11.816406 7.179688 -11.144531 6.421875 -10.3125 C 5.660156 -9.476562 5.28125 -8.441406 5.28125 -7.203125 C 5.28125 -6.472656 5.414062 -5.789062 5.6875 -5.15625 C 5.96875 -4.519531 6.359375 -3.945312 6.859375 -3.4375 C 7.367188 -2.9375 7.953125 -2.539062 8.609375 -2.25 C 9.265625 -1.957031 9.953125 -1.8125 10.671875 -1.8125 C 11.773438 -1.8125 12.90625 -2.164062 14.0625 -2.875 C 15.226562 -3.582031 16.3125 -4.816406 17.3125 -6.578125 Z M 17.3125 -13.9375 "/></g></g></g><g fill="#000000" fill-opacity="1"><g transform="translate(404.836243, 172.997176)"><g><path d="M 18.765625 -32.1875 C 18.828125 -32.050781 18.859375 -31.910156 18.859375 -31.765625 C 18.859375 -31.628906 18.878906 -31.492188 18.921875 -31.359375 C 18.847656 -30.765625 18.617188 -30.269531 18.234375 -29.875 C 17.859375 -29.476562 17.378906 -29.265625 16.796875 -29.234375 C 16.203125 -29.191406 15.679688 -29.351562 15.234375 -29.71875 C 14.785156 -30.082031 14.523438 -30.539062 14.453125 -31.09375 L 14.453125 -31.15625 C 14.421875 -31.289062 14.40625 -31.492188 14.40625 -31.765625 C 14.4375 -32.148438 14.488281 -32.488281 14.5625 -32.78125 C 14.632812 -33.070312 14.671875 -33.359375 14.671875 -33.640625 C 14.671875 -33.953125 14.503906 -34.285156 14.171875 -34.640625 C 13.847656 -35.003906 13.285156 -35.1875 12.484375 -35.1875 C 12.003906 -35.1875 11.503906 -35.097656 10.984375 -34.921875 C 10.460938 -34.753906 9.988281 -34.4375 9.5625 -33.96875 C 9.132812 -33.507812 8.78125 -32.890625 8.5 -32.109375 C 8.21875 -31.328125 8.078125 -30.332031 8.078125 -29.125 L 8.078125 -24 L 14 -24 C 14.195312 -24 14.296875 -23.878906 14.296875 -23.640625 C 14.296875 -23.390625 14.195312 -23.265625 14 -23.265625 L 8.078125 -23.265625 L 8.078125 -5.03125 C 8.078125 -4.164062 8.117188 -3.488281 8.203125 -3 C 8.296875 -2.519531 8.445312 -2.148438 8.65625 -1.890625 C 8.863281 -1.628906 9.128906 -1.457031 9.453125 -1.375 C 9.785156 -1.289062 10.210938 -1.210938 10.734375 -1.140625 C 11.109375 -1.140625 11.296875 -0.945312 11.296875 -0.5625 C 11.296875 -0.394531 11.242188 -0.257812 11.140625 -0.15625 C 11.035156 -0.0507812 10.898438 0 10.734375 0 L 1.859375 0 C 1.484375 0 1.296875 -0.1875 1.296875 -0.5625 C 1.296875 -0.945312 1.484375 -1.140625 1.859375 -1.140625 C 2.273438 -1.210938 2.644531 -1.289062 2.96875 -1.375 C 3.300781 -1.457031 3.578125 -1.617188 3.796875 -1.859375 C 4.023438 -2.109375 4.203125 -2.460938 4.328125 -2.921875 C 4.453125 -3.390625 4.515625 -4.054688 4.515625 -4.921875 L 4.515625 -23.265625 L 1.1875 -23.265625 C 0.945312 -23.265625 0.828125 -23.390625 0.828125 -23.640625 C 0.828125 -23.878906 0.945312 -24 1.1875 -24 L 4.515625 -24 L 4.515625 -27.359375 C 4.515625 -29.535156 4.832031 -31.21875 5.46875 -32.40625 C 6.101562 -33.601562 6.835938 -34.492188 7.671875 -35.078125 C 8.503906 -35.671875 9.332031 -36.023438 10.15625 -36.140625 C 10.988281 -36.265625 11.59375 -36.328125 11.96875 -36.328125 C 12.5625 -36.328125 13.21875 -36.257812 13.9375 -36.125 C 14.664062 -35.988281 15.359375 -35.753906 16.015625 -35.421875 C 16.671875 -35.097656 17.25 -34.664062 17.75 -34.125 C 18.25 -33.59375 18.585938 -32.945312 18.765625 -32.1875 Z M 18.765625 -32.1875 "/></g></g></g><g fill="#000000" fill-opacity="1"><g transform="translate(424.581951, 172.997176)"><g><path d="M 5.28125 -13.109375 L 5.28125 -12.390625 C 5.28125 -10.691406 5.453125 -9.148438 5.796875 -7.765625 C 6.148438 -6.390625 6.617188 -5.207031 7.203125 -4.21875 C 7.785156 -3.238281 8.492188 -2.476562 9.328125 -1.9375 C 10.160156 -1.40625 11.039062 -1.140625 11.96875 -1.140625 C 13.351562 -1.140625 14.5625 -1.375 15.59375 -1.84375 C 16.632812 -2.3125 17.519531 -2.972656 18.25 -3.828125 C 18.519531 -4.179688 18.765625 -4.546875 18.984375 -4.921875 C 19.210938 -5.304688 19.414062 -5.6875 19.59375 -6.0625 C 19.65625 -6.238281 19.753906 -6.351562 19.890625 -6.40625 C 20.035156 -6.457031 20.195312 -6.445312 20.375 -6.375 C 20.539062 -6.300781 20.648438 -6.195312 20.703125 -6.0625 C 20.753906 -5.925781 20.742188 -5.769531 20.671875 -5.59375 C 20.160156 -4.21875 19.351562 -3.0625 18.25 -2.125 C 17.445312 -1.4375 16.550781 -0.910156 15.5625 -0.546875 C 14.582031 -0.179688 13.40625 0 12.03125 0 C 10.46875 0 9.054688 -0.328125 7.796875 -0.984375 C 6.535156 -1.640625 5.457031 -2.53125 4.5625 -3.65625 C 3.664062 -4.78125 2.960938 -6.09375 2.453125 -7.59375 C 1.953125 -9.09375 1.703125 -10.691406 1.703125 -12.390625 C 1.703125 -14.078125 1.9375 -15.671875 2.40625 -17.171875 C 2.875 -18.679688 3.546875 -20.003906 4.421875 -21.140625 C 5.304688 -22.285156 6.363281 -23.1875 7.59375 -23.84375 C 8.820312 -24.5 10.210938 -24.828125 11.765625 -24.828125 C 12.972656 -24.859375 14.144531 -24.628906 15.28125 -24.140625 C 16.425781 -23.660156 17.414062 -22.972656 18.25 -22.078125 C 20.25 -19.867188 21.40625 -17.273438 21.71875 -14.296875 C 21.78125 -13.992188 21.691406 -13.71875 21.453125 -13.46875 C 21.316406 -13.226562 21.054688 -13.109375 20.671875 -13.109375 Z M 11.765625 -23.6875 C 10.210938 -23.6875 8.832031 -22.835938 7.625 -21.140625 C 6.414062 -19.453125 5.671875 -17.171875 5.390625 -14.296875 L 16.53125 -14.296875 C 17.019531 -14.296875 17.382812 -14.453125 17.625 -14.765625 C 17.894531 -15.148438 18 -15.550781 17.9375 -15.96875 C 17.488281 -18.351562 16.691406 -20.234375 15.546875 -21.609375 C 14.410156 -22.992188 13.148438 -23.6875 11.765625 -23.6875 Z M 21.40625 -34.359375 L 13.109375 -28.5625 L 17.15625 -34.359375 Z M 21.40625 -34.359375 "/></g></g></g><g fill="#000000" fill-opacity="1"><g transform="translate(452.826648, 172.997176)"><g><path d="M 14.15625 -5.390625 C 14.320312 -5.390625 14.457031 -5.335938 14.5625 -5.234375 C 14.695312 -5.023438 14.765625 -4.882812 14.765625 -4.8125 L 14.765625 -4.765625 C 14.734375 -4.347656 14.644531 -3.785156 14.5 -3.078125 C 14.363281 -2.367188 14.039062 -1.722656 13.53125 -1.140625 C 12.769531 -0.304688 11.816406 0.0703125 10.671875 0 C 9.640625 0 8.75 -0.117188 8 -0.359375 C 7.257812 -0.597656 6.644531 -0.898438 6.15625 -1.265625 C 5.675781 -1.628906 5.304688 -2.035156 5.046875 -2.484375 C 4.796875 -2.929688 4.597656 -3.363281 4.453125 -3.78125 C 4.140625 -4.988281 3.984375 -6.234375 3.984375 -7.515625 L 3.984375 -23.015625 L 1.296875 -23.015625 C 0.910156 -23.015625 0.71875 -23.222656 0.71875 -23.640625 C 0.71875 -24.015625 0.910156 -24.203125 1.296875 -24.203125 L 3.984375 -24.203125 L 3.984375 -28.140625 C 3.984375 -28.453125 4.125 -28.695312 4.40625 -28.875 C 5.539062 -29.726562 6.25 -30.863281 6.53125 -32.28125 C 6.601562 -32.5625 6.773438 -32.703125 7.046875 -32.703125 C 7.390625 -32.703125 7.5625 -32.53125 7.5625 -32.1875 L 7.5625 -24.203125 L 12.4375 -24.203125 C 12.820312 -24.203125 13.015625 -24.015625 13.015625 -23.640625 C 13.015625 -23.222656 12.820312 -23.015625 12.4375 -23.015625 L 7.5625 -23.015625 L 7.5625 -7.515625 C 7.5625 -6.753906 7.597656 -5.984375 7.671875 -5.203125 C 7.742188 -4.429688 7.878906 -3.75 8.078125 -3.15625 C 8.285156 -2.570312 8.597656 -2.085938 9.015625 -1.703125 C 9.429688 -1.328125 9.984375 -1.140625 10.671875 -1.140625 C 11.265625 -1.140625 11.738281 -1.25 12.09375 -1.46875 C 12.457031 -1.695312 12.75 -1.984375 12.96875 -2.328125 C 13.195312 -2.671875 13.351562 -3.066406 13.4375 -3.515625 C 13.53125 -3.972656 13.578125 -4.40625 13.578125 -4.8125 C 13.578125 -5.195312 13.769531 -5.390625 14.15625 -5.390625 Z M 14.15625 -5.390625 "/></g></g></g><g fill="#000000" fill-opacity="1"><g transform="translate(473.556985, 172.997176)"><g><path d="M 25.453125 -1.140625 C 25.828125 -1.140625 26.015625 -0.945312 26.015625 -0.5625 C 26.015625 -0.1875 25.828125 0 25.453125 0 L 18.03125 0 C 17.65625 0 17.46875 -0.1875 17.46875 -0.5625 C 17.46875 -0.945312 17.65625 -1.140625 18.03125 -1.140625 C 18.832031 -1.140625 19.351562 -1.429688 19.59375 -2.015625 C 19.832031 -2.609375 19.953125 -3.578125 19.953125 -4.921875 L 19.953125 -16.171875 C 19.953125 -16.546875 19.890625 -17.140625 19.765625 -17.953125 C 19.648438 -18.765625 19.394531 -19.585938 19 -20.421875 C 18.601562 -21.253906 18.023438 -21.976562 17.265625 -22.59375 C 16.503906 -23.21875 15.484375 -23.53125 14.203125 -23.53125 C 12.921875 -23.53125 11.835938 -23.28125 10.953125 -22.78125 C 10.078125 -22.28125 9.347656 -21.71875 8.765625 -21.09375 C 8.109375 -20.363281 7.570312 -19.550781 7.15625 -18.65625 L 7.15625 -5.03125 C 7.15625 -3.613281 7.273438 -2.609375 7.515625 -2.015625 C 7.753906 -1.429688 8.269531 -1.140625 9.0625 -1.140625 C 9.445312 -1.140625 9.640625 -0.945312 9.640625 -0.5625 C 9.640625 -0.1875 9.445312 0 9.0625 0 L 1.65625 0 C 1.28125 0 1.09375 -0.1875 1.09375 -0.5625 C 1.09375 -0.945312 1.28125 -1.140625 1.65625 -1.140625 C 2.445312 -1.140625 2.960938 -1.429688 3.203125 -2.015625 C 3.453125 -2.609375 3.578125 -3.578125 3.578125 -4.921875 L 3.578125 -31.359375 C 3.578125 -32.703125 3.453125 -33.675781 3.203125 -34.28125 C 2.960938 -34.882812 2.445312 -35.1875 1.65625 -35.1875 C 1.28125 -35.1875 1.09375 -35.378906 1.09375 -35.765625 C 1.09375 -36.140625 1.28125 -36.328125 1.65625 -36.328125 L 6.578125 -36.328125 C 6.960938 -36.328125 7.15625 -36.15625 7.15625 -35.8125 L 7.15625 -20.0625 C 7.675781 -20.882812 8.28125 -21.625 8.96875 -22.28125 C 9.59375 -22.832031 10.359375 -23.34375 11.265625 -23.8125 C 12.179688 -24.28125 13.242188 -24.53125 14.453125 -24.5625 C 16.359375 -24.707031 18.191406 -24.328125 19.953125 -23.421875 C 21.054688 -22.835938 21.925781 -21.957031 22.5625 -20.78125 C 23.207031 -19.601562 23.53125 -18.101562 23.53125 -16.28125 L 23.53125 -5.03125 C 23.53125 -3.613281 23.648438 -2.609375 23.890625 -2.015625 C 24.128906 -1.429688 24.648438 -1.140625 25.453125 -1.140625 Z M 25.453125 -1.140625 "/></g></g></g><g fill="#000000" fill-opacity="1"><g transform="translate(505.584769, 172.997176)"><g><path d="M 5.28125 -13.171875 L 5.28125 -12.390625 C 5.28125 -10.691406 5.453125 -9.148438 5.796875 -7.765625 C 6.148438 -6.390625 6.617188 -5.207031 7.203125 -4.21875 C 7.785156 -3.238281 8.492188 -2.476562 9.328125 -1.9375 C 10.160156 -1.40625 11.039062 -1.140625 11.96875 -1.140625 C 13.832031 -1.140625 15.378906 -1.546875 16.609375 -2.359375 C 17.835938 -3.171875 18.832031 -4.40625 19.59375 -6.0625 C 19.65625 -6.238281 19.753906 -6.351562 19.890625 -6.40625 C 20.035156 -6.457031 20.195312 -6.445312 20.375 -6.375 C 20.539062 -6.300781 20.648438 -6.195312 20.703125 -6.0625 C 20.753906 -5.925781 20.742188 -5.769531 20.671875 -5.59375 C 19.953125 -3.726562 18.820312 -2.328125 17.28125 -1.390625 C 15.75 -0.460938 14 0 12.03125 0 C 10.46875 0 9.054688 -0.328125 7.796875 -0.984375 C 6.535156 -1.640625 5.457031 -2.53125 4.5625 -3.65625 C 3.664062 -4.78125 2.960938 -6.09375 2.453125 -7.59375 C 1.953125 -9.09375 1.703125 -10.691406 1.703125 -12.390625 C 1.703125 -14.078125 1.9375 -15.671875 2.40625 -17.171875 C 2.875 -18.679688 3.546875 -20.003906 4.421875 -21.140625 C 5.304688 -22.285156 6.363281 -23.1875 7.59375 -23.84375 C 8.820312 -24.5 10.210938 -24.828125 11.765625 -24.828125 C 12.972656 -24.859375 14.144531 -24.628906 15.28125 -24.140625 C 16.425781 -23.660156 17.414062 -22.972656 18.25 -22.078125 C 20.25 -19.867188 21.40625 -17.273438 21.71875 -14.296875 C 21.78125 -13.992188 21.691406 -13.71875 21.453125 -13.46875 C 21.316406 -13.226562 21.054688 -13.109375 20.671875 -13.109375 Z M 11.765625 -23.6875 C 10.210938 -23.6875 8.832031 -22.835938 7.625 -21.140625 C 6.414062 -19.453125 5.671875 -17.171875 5.390625 -14.296875 L 16.53125 -14.296875 C 17.019531 -14.296875 17.382812 -14.453125 17.625 -14.765625 C 17.894531 -15.148438 18 -15.550781 17.9375 -15.96875 C 17.488281 -18.351562 16.691406 -20.234375 15.546875 -21.609375 C 14.410156 -22.992188 13.148438 -23.6875 11.765625 -23.6875 Z M 11.765625 -23.6875 "/></g></g></g><g fill="#000000" fill-opacity="1"><g transform="translate(533.829461, 172.997176)"><g><path d="M 25.140625 -1.140625 C 25.515625 -1.140625 25.703125 -0.945312 25.703125 -0.5625 C 25.703125 -0.1875 25.515625 0 25.140625 0 L 17.71875 0 C 17.34375 0 17.15625 -0.1875 17.15625 -0.5625 C 17.15625 -0.945312 17.34375 -1.140625 17.71875 -1.140625 C 18.519531 -1.140625 19.039062 -1.429688 19.28125 -2.015625 C 19.519531 -2.609375 19.640625 -3.578125 19.640625 -4.921875 L 19.640625 -16.375 C 19.640625 -16.757812 19.578125 -17.363281 19.453125 -18.1875 C 19.335938 -19.019531 19.082031 -19.847656 18.6875 -20.671875 C 18.289062 -21.503906 17.71875 -22.234375 16.96875 -22.859375 C 16.226562 -23.484375 15.21875 -23.796875 13.9375 -23.796875 C 12.9375 -23.796875 12.054688 -23.617188 11.296875 -23.265625 C 10.535156 -22.921875 9.894531 -22.5 9.375 -22 C 8.863281 -21.5 8.453125 -20.988281 8.140625 -20.46875 C 7.828125 -19.945312 7.601562 -19.515625 7.46875 -19.171875 L 7.46875 -5.03125 C 7.46875 -3.613281 7.585938 -2.609375 7.828125 -2.015625 C 8.066406 -1.429688 8.582031 -1.140625 9.375 -1.140625 C 9.757812 -1.140625 9.953125 -0.945312 9.953125 -0.5625 C 9.953125 -0.1875 9.757812 0 9.375 0 L 1.96875 0 C 1.59375 0 1.40625 -0.1875 1.40625 -0.5625 C 1.40625 -0.945312 1.59375 -1.140625 1.96875 -1.140625 C 2.757812 -1.140625 3.273438 -1.429688 3.515625 -2.015625 C 3.765625 -2.609375 3.890625 -3.578125 3.890625 -4.921875 L 3.890625 -19.234375 C 3.890625 -20.578125 3.765625 -21.550781 3.515625 -22.15625 C 3.273438 -22.757812 2.757812 -23.0625 1.96875 -23.0625 L 1.765625 -23.0625 C 1.378906 -23.0625 1.1875 -23.253906 1.1875 -23.640625 C 1.1875 -24.015625 1.378906 -24.203125 1.765625 -24.203125 L 6.890625 -24.203125 C 7.023438 -24.203125 7.164062 -24.132812 7.3125 -24 C 7.414062 -23.894531 7.46875 -23.773438 7.46875 -23.640625 L 7.46875 -20.671875 C 7.675781 -20.984375 7.957031 -21.375 8.3125 -21.84375 C 8.675781 -22.3125 9.132812 -22.757812 9.6875 -23.1875 C 10.238281 -23.625 10.882812 -24 11.625 -24.3125 C 12.375 -24.625 13.21875 -24.796875 14.15625 -24.828125 C 16.050781 -24.929688 17.878906 -24.550781 19.640625 -23.6875 C 20.742188 -23.0625 21.613281 -22.171875 22.25 -21.015625 C 22.894531 -19.859375 23.21875 -18.347656 23.21875 -16.484375 L 23.21875 -5.03125 C 23.21875 -3.613281 23.335938 -2.609375 23.578125 -2.015625 C 23.816406 -1.429688 24.335938 -1.140625 25.140625 -1.140625 Z M 25.140625 -1.140625 "/></g></g></g><g fill="#000000" fill-opacity="1"><g transform="translate(565.649948, 172.997176)"><g><path d="M 22.953125 -1.140625 C 23.335938 -1.140625 23.53125 -0.945312 23.53125 -0.5625 C 23.53125 -0.1875 23.335938 0 22.953125 0 L 18.703125 0 C 18.296875 0 17.988281 -0.132812 17.78125 -0.40625 C 17.570312 -0.6875 17.429688 -1.035156 17.359375 -1.453125 C 17.296875 -1.867188 17.269531 -2.289062 17.28125 -2.71875 C 17.300781 -3.15625 17.3125 -3.523438 17.3125 -3.828125 L 17.3125 -4.8125 C 16.476562 -3.195312 15.316406 -2 13.828125 -1.21875 C 12.347656 -0.4375 10.832031 -0.046875 9.28125 -0.046875 C 8.3125 -0.046875 7.367188 -0.203125 6.453125 -0.515625 C 5.535156 -0.828125 4.726562 -1.273438 4.03125 -1.859375 C 3.34375 -2.453125 2.78125 -3.195312 2.34375 -4.09375 C 1.914062 -4.988281 1.703125 -6.023438 1.703125 -7.203125 C 1.703125 -8.484375 2.046875 -9.5625 2.734375 -10.4375 C 3.429688 -11.320312 4.304688 -12.039062 5.359375 -12.59375 C 6.410156 -13.144531 7.578125 -13.578125 8.859375 -13.890625 C 10.140625 -14.203125 11.359375 -14.425781 12.515625 -14.5625 C 13.671875 -14.695312 14.6875 -14.773438 15.5625 -14.796875 C 16.445312 -14.816406 17.03125 -14.828125 17.3125 -14.828125 L 17.3125 -18.1875 C 17.3125 -19.289062 17.113281 -20.1875 16.71875 -20.875 C 16.320312 -21.570312 15.828125 -22.117188 15.234375 -22.515625 C 14.648438 -22.910156 13.992188 -23.1875 13.265625 -23.34375 C 12.535156 -23.5 11.863281 -23.578125 11.25 -23.578125 L 10.578125 -23.578125 C 9.429688 -23.578125 8.570312 -23.367188 8 -22.953125 C 7.4375 -22.546875 7.1875 -22.117188 7.25 -21.671875 C 7.289062 -21.460938 7.351562 -21.28125 7.4375 -21.125 C 7.519531 -20.96875 7.613281 -20.800781 7.71875 -20.625 C 7.820312 -20.457031 7.925781 -20.257812 8.03125 -20.03125 C 8.132812 -19.800781 8.203125 -19.515625 8.234375 -19.171875 C 8.273438 -19.140625 8.296875 -19.054688 8.296875 -18.921875 L 8.296875 -18.609375 C 8.296875 -17.816406 8.023438 -17.160156 7.484375 -16.640625 C 6.953125 -16.117188 6.304688 -15.84375 5.546875 -15.8125 C 4.753906 -15.8125 4.078125 -16.085938 3.515625 -16.640625 C 2.960938 -17.191406 2.6875 -17.863281 2.6875 -18.65625 C 2.6875 -19.144531 2.804688 -19.734375 3.046875 -20.421875 C 3.296875 -21.109375 3.738281 -21.769531 4.375 -22.40625 C 5.019531 -23.050781 5.898438 -23.597656 7.015625 -24.046875 C 8.140625 -24.492188 9.566406 -24.71875 11.296875 -24.71875 C 12.335938 -24.757812 13.363281 -24.675781 14.375 -24.46875 C 15.394531 -24.257812 16.375 -23.910156 17.3125 -23.421875 C 18.519531 -22.765625 19.398438 -21.976562 19.953125 -21.0625 C 20.503906 -20.144531 20.816406 -19.289062 20.890625 -18.5 L 20.890625 -4.296875 C 20.890625 -3.191406 21.039062 -2.414062 21.34375 -1.96875 C 21.65625 -1.519531 22.191406 -1.242188 22.953125 -1.140625 Z M 17.3125 -13.9375 C 16 -13.875 14.632812 -13.71875 13.21875 -13.46875 C 11.800781 -13.226562 10.503906 -12.847656 9.328125 -12.328125 C 8.148438 -11.816406 7.179688 -11.144531 6.421875 -10.3125 C 5.660156 -9.476562 5.28125 -8.441406 5.28125 -7.203125 C 5.28125 -6.472656 5.414062 -5.789062 5.6875 -5.15625 C 5.96875 -4.519531 6.359375 -3.945312 6.859375 -3.4375 C 7.367188 -2.9375 7.953125 -2.539062 8.609375 -2.25 C 9.265625 -1.957031 9.953125 -1.8125 10.671875 -1.8125 C 11.773438 -1.8125 12.90625 -2.164062 14.0625 -2.875 C 15.226562 -3.582031 16.3125 -4.816406 17.3125 -6.578125 Z M 17.3125 -13.9375 "/></g></g></g></svg>